Coordinates
version=1
nRows=13
nColumns=22
inDegrees=yes

Units are S.I. units (second, meters, Newtons, ...)
If the header above contains a line with 'inDegrees', this indicates whether rotational values are in degrees (yes) or radians (no).

endheader
time	pelvis_tilt	pelvis_list	pelvis_rotation	pelvis_tx	pelvis_ty	pelvis_tz	hip_flexion_r	hip_adduction_r	hip_rotation_r	knee_angle_r	ankle_angle_r	subtalar_angle_r	hip_flexion_l	hip_adduction_l	hip_rotation_l	knee_angle_l	ankle_angle_l	subtalar_angle_l	lumbar_extension	lumbar_bending	lumbar_rotation
      2.50000000	    -10.20394185	     -6.26124379	    -19.21877653	     -0.03540521	      0.96401463	      0.57972708	      7.83293218	      9.02949152	     -6.00303632	    -20.75913199	     23.96668071	     -4.88790115	     40.60169125	     -9.54034594	    -11.68212395	    -31.55485594	     14.31228630	      0.50206936	     -4.72099906	     10.32977559	     13.36334448
      2.51000000	    -10.16927815	     -6.53182206	    -18.90815775	     -0.02702274	      0.96299750	      0.58176629	      6.92203360	      9.26907339	     -6.14679584	    -20.31196282	     24.15659320	     -4.75102634	     40.64412434	     -9.66393544	    -12.22411988	    -29.75049612	     14.47663019	      0.75495354	     -4.81354825	     10.50040401	     13.40106814
      2.52000000	    -10.09924257	     -6.80757209	    -18.59850184	     -0.01843804	      0.96196928	      0.58376339	      5.96986599	      9.50699828	     -6.24504122	    -19.87857107	     24.32602109	     -4.58860675	     40.64099668	     -9.79266218	    -12.81689382	    -28.10149250	     14.69710893	      0.95214332	     -4.92659578	     10.66039850	     13.42731011
      2.53000000	    -10.00124487	     -7.08300919	    -18.28961452	     -0.00964660	      0.96091959	      0.58570257	      4.99068483	      9.74077532	     -6.28065368	    -19.46833248	     24.47278567	     -4.40930124	     40.60194216	     -9.91685185	    -13.43319717	    -26.62316970	     14.96718298	      1.07967519	     -5.04687511	     10.80713669	     13.45172670
      2.54000000	     -9.86336657	     -7.34465597	    -17.97580716	     -0.00063283	      0.95987140	      0.58756287	      3.98018581	      9.94838407	     -6.26105789	    -19.08981411	     24.60289697	     -4.19735345	     40.51539536	    -10.01942648	    -14.08106590	    -25.32467111	     15.24728648	      1.15657973	     -5.18193839	     10.92465297	     13.45891744
      2.55000000	     -9.69461330	     -7.59491954	    -17.66691529	      0.00856731	      0.95881774	      0.58934030	      2.95897907	     10.13220709	     -6.18062787	    -18.76232403	     24.70923429	     -3.94545044	     40.39140361	    -10.10761287	    -14.73828644	    -24.22322683	     15.53647553	      1.19456311	     -5.33105449	     11.01965416	     13.46936481
      2.56000000	     -9.51798657	     -7.81966967	    -17.36565498	      0.01795239	      0.95772687	      0.59105980	      1.96657280	     10.27855488	     -6.08529376	    -18.51059054	     24.80095605	     -3.64033709	     40.25574954	    -10.17518799	    -15.38639975	    -23.33048021	     15.78310636	      1.21272371	     -5.45550336	     11.08267329	     13.47807697
      2.57000000	     -9.35520903	     -8.02023603	    -17.08276190	      0.02745020	      0.95657614	      0.59273194	      1.03891636	     10.39006847	     -5.99654062	    -18.35272732	     24.87718608	     -3.26013923	     40.13340346	    -10.23337701	    -16.00889959	    -22.65670899	     15.96959048	      1.22385646	     -5.54463942	     11.12193877	     13.49254684
      2.58000000	     -9.22591025	     -8.18640692	    -16.81451486	      0.03702468	      0.95534346	      0.59436401	      0.21861670	     10.45409533	     -5.97312445	    -18.32109961	     24.95577696	     -2.74641585	     40.04600788	    -10.27233009	    -16.57538792	    -22.20388204	     16.05125048	      1.23359632	     -5.57714343	     11.12949958	     13.48881688
      2.59000000	     -9.19390748	     -8.35611601	    -16.62578077	      0.04658038	      0.95397014	      0.59608590	     -0.44012933	     10.53553041	     -5.94525683	    -18.41430874	     24.95935535	     -2.24470621	     40.06230507	    -10.38519482	    -17.08739169	    -22.01016386	     16.06291665	      1.21219110	     -5.50978721	     11.16170033	     13.56608333
      2.60000000	     -9.21831709	     -8.46504417	    -16.42759283	      0.05618381	      0.95249239	      0.59775937	     -0.94402589	     10.53496340	     -6.10137627	    -18.65388216	     25.02097669	     -1.47962403	     40.14024285	    -10.43622573	    -17.47516439	    -22.02064737	     15.86654775	      1.14268539	     -5.34863747	     11.13137212	     13.61285562
      2.61000000	     -9.34656030	     -8.55260295	    -16.27193521	      0.06579553	      0.95087758	      0.59945812	     -1.25759223	     10.51863805	     -6.31630410	    -19.04231712	     25.03980957	     -0.69747518	     40.33168611	    -10.50848437	    -17.75042626	    -22.26109240	     15.51184712	      0.96826673	     -5.06532167	     11.10590488	     13.66779716
      2.62000000	     -9.50427968	     -8.59210389	    -16.11074228	      0.07548834	      0.94924441	      0.60105975	     -1.44313639	     10.43582636	     -6.58538279	    -19.58917807	     25.02930013	      0.17238735	     40.56137802	    -10.52702649	    -17.88306417	    -22.70308916	     14.96654946	      0.64990134	     -4.72684185	     11.03535576	     13.69995965
